<svg xmlns="http://www.w3.org/2000/svg" version="1.1" xmlns:xlink="http://www.w3.org/1999/xlink" xmlns:svgjs="http://svgjs.dev/svgjs" width="1000" height="1000" viewBox="0 0 1000 1000"><rect width="1000" height="1000" fill="#000000"></rect><g transform="matrix(0.7,0,0,0.7,149.5757607518197,420.91359200213515)"><svg viewBox="0 0 396 90" data-background-color="#282634" preserveAspectRatio="xMidYMid meet" height="227" width="1000" xmlns="http://www.w3.org/2000/svg" xmlns:xlink="http://www.w3.org/1999/xlink"><g id="tight-bounds" transform="matrix(1,0,0,1,0.23999820325627752,-0.20593631335532336)"><svg viewBox="0 0 395.52 90.41187262671066" height="90.41187262671066" width="395.52"><g><svg viewBox="0 0 554.2463221558019 126.69510488110134" height="90.41187262671066" width="395.52"><g><rect width="5.237912985138624" height="126.69510488110134" x="139.7765950734418" y="0" fill="#ffffff" opacity="1" stroke-width="0" stroke="transparent" fill-opacity="1" class="rect-o-0" data-fill-palette-color="primary" rx="1%" id="o-0" data-palette-color="#ff4057"></rect></g><g transform="matrix(1,0,0,1,158.72632215580194,0.31516195244054046)"><svg viewBox="0 0 395.52 126.06478097622026" height="126.06478097622026" width="395.52"><g id="textblocktransform"><svg viewBox="0 0 395.52 126.06478097622026" height="126.06478097622026" width="395.52" id="textblock"><g><svg viewBox="0 0 395.52 126.06478097622026" height="126.06478097622026" width="395.52"><g transform="matrix(1,0,0,1,0,0)"><svg width="395.52" viewBox="0.75 -35.099998474121094 239.6999969482422 73.5" height="126.06478097622026" data-palette-color="#ff4057"><svg></svg><svg></svg><g class="wordmark-text-0" data-fill-palette-color="primary" id="text-0"><path xmlns="http://www.w3.org/2000/svg" d="M5-33.95l-2.65-0.3 0.05-0.75h12.15c3.433 0 6.083 0.75 7.95 2.25 1.867 1.5 2.8 3.733 2.8 6.7v0c0 1.933-0.74 3.95-2.22 6.05-1.487 2.1-2.88 3.45-4.18 4.05v0l9.25 15.05 2.45 0.15c0 0.033-0.017 0.283-0.05 0.75v0l-5.45 0.05-9.5-15.4h-6.65v14.4l3.5 0.2c0 0.033-0.017 0.283-0.05 0.75v0l-10.05 0.05 0.05-0.7 2.6-0.35c0.233-0.033 0.417-0.183 0.55-0.45v0-32c-0.1-0.3-0.283-0.467-0.55-0.5zM14.3-34.25v0h-5.35v18.15h8.55c1.733-1.967 2.9-3.71 3.5-5.23 0.6-1.513 0.9-2.987 0.9-4.42v0c0-2.8-0.65-4.917-1.95-6.35-1.3-1.433-3.183-2.15-5.65-2.15zM42.4 0l-10.05 0.05 0.05-0.7 2.6-0.35c0.233-0.033 0.433-0.25 0.6-0.65v0l10.8-33.35h3.3l11.5 34.05 3.45 0.2c0 0.033-0.017 0.283-0.05 0.75v0l-10 0.05c0-0.3 0.017-0.533 0.05-0.7v0l2.6-0.35c0.267-0.033 0.4-0.233 0.4-0.6v0l-2.75-8.15h-15.6l-2.65 8.7 5.8 0.3c0 0.033-0.017 0.283-0.05 0.75zM54.55-10.75l-7.8-23.3-7.15 23.3zM76.25-0.95v0c2.467 0 4.633-0.727 6.5-2.18 1.867-1.447 2.8-3.653 2.8-6.62v0c0-1.333-0.327-2.477-0.98-3.43-0.647-0.947-1.503-1.68-2.57-2.2-1.067-0.513-2.233-0.963-3.5-1.35-1.267-0.38-2.533-0.787-3.8-1.22-1.267-0.433-2.433-0.95-3.5-1.55-1.067-0.6-1.923-1.45-2.57-2.55-0.653-1.1-0.98-2.417-0.98-3.95v0c0-2.667 0.917-4.85 2.75-6.55 1.833-1.7 4.283-2.55 7.35-2.55 3.067 0 6 0.35 8.8 1.05v0l0.55 6.25-0.95 0.4-0.5-3.95c-2.467-1.833-4.783-2.75-6.95-2.75-2.167 0-3.983 0.657-5.45 1.97-1.467 1.32-2.2 3.297-2.2 5.93v0c0 1.533 0.617 2.75 1.85 3.65 1.233 0.9 2.727 1.6 4.48 2.1 1.747 0.5 3.497 1.067 5.25 1.7 1.747 0.633 3.237 1.7 4.47 3.2 1.233 1.5 1.85 3.45 1.85 5.85v0c0 3.233-1.15 5.667-3.45 7.3-2.3 1.633-5.333 2.45-9.1 2.45-3.767 0-7.033-1.017-9.8-3.05v0l0.05-5.3 0.95-0.25 0.1 2.85c0.9 1.267 2.133 2.373 3.7 3.32 1.567 0.953 3.183 1.43 4.85 1.43zM102.75 0l-10.05 0.05 0.05-0.7 2.6-0.35c0.333-0.033 0.533-0.25 0.6-0.65v0h0.05v-31.6h-0.05c-0.067-0.433-0.267-0.667-0.6-0.7v0l-2.6-0.25-0.05-0.75 10.05-0.05c0 0.033 0.017 0.283 0.05 0.75v0l-3.4 0.3v33l3.4 0.2c0 0.033-0.017 0.283-0.05 0.75zM122.9-34.95l9.75-0.05c0 0.033 0.017 0.283 0.05 0.75v0l-4.25 0.4-12.15 14.15 14.8 18.8 2.35 0.15c0 0.033-0.017 0.283-0.05 0.75v0l-5.4 0.05-14.45-18.25-0.05-0.05v17.3l3.4 0.2c0 0.033-0.017 0.283-0.05 0.75v0l-10 0.05c0-0.3 0.017-0.533 0.05-0.7v0l2.6-0.35c0.333-0.033 0.533-0.25 0.6-0.65v0-31.65c-0.133-0.4-0.333-0.617-0.6-0.65v0l-2.6-0.25c-0.033-0.2-0.05-0.45-0.05-0.75v0l10-0.05c0 0.033 0.017 0.283 0.05 0.75v0l-3.4 0.3v15.65l0.1-0.05 12.25-14.65c0.267-0.533 0.167-0.85-0.3-0.95v0l-2.6-0.25c-0.033-0.2-0.05-0.45-0.05-0.75zM113.5-18.25v-0.05z" fill="#ffffff" fill-rule="nonzero" stroke="none" stroke-width="1" stroke-linecap="butt" stroke-linejoin="miter" stroke-miterlimit="10" stroke-dasharray="" stroke-dashoffset="0" font-family="none" font-weight="none" font-size="none" text-anchor="none" style="mix-blend-mode: normal" data-fill-palette-color="primary" opacity="1"></path><path xmlns="http://www.w3.org/2000/svg" d="M10.8 38.2l-10.05 0.05 0.05-0.7 2.6-0.35c0.233-0.033 0.433-0.25 0.6-0.65v0l10.8-33.35h3.3l11.5 34.05 3.45 0.2c0 0.033-0.017 0.283-0.05 0.75v0l-10 0.05c0-0.3 0.017-0.533 0.05-0.7v0l2.6-0.35c0.267-0.033 0.4-0.233 0.4-0.6v0l-2.75-8.15h-15.6l-2.65 8.7 5.8 0.3c0 0.033-0.017 0.283-0.05 0.75zM22.95 27.45l-7.8-23.3-7.15 23.3zM37.65 4.25l-2.65-0.3 0.05-0.75h10.7c7.2 0 10.8 2.817 10.8 8.45v0c0 2.167-1.433 4.533-4.3 7.1v0c4.233 1.033 6.35 4.067 6.35 9.1v0c0 3.933-0.99 6.64-2.97 8.12-1.987 1.487-5.03 2.23-9.13 2.23v0h-1.45l-10.05 0.05 0.05-0.7 2.6-0.35c0.333-0.033 0.533-0.25 0.6-0.65v0-31.6c-0.067-0.433-0.267-0.667-0.6-0.7zM47.5 19.05v0h-5.85v18.4h4.6c5.967 0 8.95-3.133 8.95-9.4v0c0-3.2-0.64-5.5-1.92-6.9-1.287-1.4-3.213-2.1-5.78-2.1zM41.65 18.3h6.1c1.233 0 2.3 0.067 3.2 0.2v0c1.467-2.3 2.2-4.483 2.2-6.55v0c0-5.333-2.55-8-7.65-8v0h-3.85zM64.45 4.25l-2.65-0.3 0.05-0.75h12.2c4.5 0 8.11 1.307 10.83 3.92 2.713 2.62 4.07 6.88 4.07 12.78v0c0 5.833-0.95 10.2-2.85 13.1v0c-1.667 2.533-4.267 4.133-7.8 4.8v0c-1.567 0.267-3.4 0.4-5.5 0.4v0h-0.95l-10.05 0.05 0.05-0.7 2.6-0.35c0.333-0.033 0.533-0.25 0.6-0.65v0-31.6c-0.067-0.433-0.267-0.667-0.6-0.7zM73.8 3.95v0h-5.35v33.5h4.1c1.6 0 2.96-0.093 4.08-0.28 1.113-0.18 2.28-0.613 3.5-1.3 1.213-0.68 2.17-1.62 2.87-2.82v0c1.7-2.833 2.55-7.133 2.55-12.9v0c0-6-1.183-10.25-3.55-12.75v0c-2.167-2.3-4.9-3.45-8.2-3.45zM92.7 3.25l10-0.05c0 0.033 0.017 0.283 0.05 0.75v0l-3.4 0.3v18.9c0 5.8 1.017 9.65 3.05 11.55v0c0.967 0.933 1.95 1.573 2.95 1.92 1 0.353 2.177 0.53 3.53 0.53 1.347 0 2.57-0.183 3.67-0.55 1.1-0.367 2.167-1.033 3.2-2v0c2.2-2 3.3-5.817 3.3-11.45v0-18.1c-0.067-0.433-0.267-0.667-0.6-0.7v0l-3.6-0.35c-0.033-0.2-0.05-0.45-0.05-0.75v0l9.5-0.05c0 0.033 0.017 0.283 0.05 0.75v0l-4.15 0.45v18.8c0 10.133-3.783 15.2-11.35 15.2v0c-1.833 0-3.44-0.193-4.82-0.58-1.387-0.38-2.73-1.087-4.03-2.12v0c-2.7-2.1-4.05-6.267-4.05-12.5v0-18.3c-0.133-0.4-0.333-0.617-0.6-0.65v0l-2.6-0.25c-0.033-0.2-0.05-0.45-0.05-0.75zM127.1 3.25l10.05-0.05c0 0.033 0.017 0.283 0.05 0.75v0l-3.45 0.3v32.95h13.8l1-8 0.95 0.25-0.75 8.75h-11.6l-10.05 0.05 0.05-0.7 2.6-0.35c0.333-0.033 0.533-0.25 0.6-0.65v0-31.65c-0.067-0.4-0.267-0.617-0.6-0.65v0l-2.6-0.25zM152.6 3.25l10.05-0.05c0 0.033 0.017 0.283 0.05 0.75v0l-3.45 0.3v32.95h13.8l1-8 0.95 0.25-0.75 8.75h-11.6l-10.05 0.05 0.05-0.7 2.6-0.35c0.333-0.033 0.533-0.25 0.6-0.65v0-31.65c-0.067-0.4-0.267-0.617-0.6-0.65v0l-2.6-0.25zM186.5 38.2l-10.05 0.05 0.05-0.7 2.6-0.35c0.233-0.033 0.433-0.25 0.6-0.65v0l10.8-33.35h3.3l11.5 34.05 3.45 0.2c0 0.033-0.017 0.283-0.05 0.75v0l-10 0.05c0-0.3 0.017-0.533 0.05-0.7v0l2.6-0.35c0.267-0.033 0.4-0.233 0.4-0.6v0l-2.75-8.15h-15.6l-2.65 8.7 5.8 0.3c0 0.033-0.017 0.283-0.05 0.75zM198.65 27.45l-7.8-23.3-7.15 23.3zM230.4 3.25l9.5-0.05c0 0.033 0.017 0.283 0.05 0.75v0l-3.15 0.35v32.95l3.65 0.2c0 0.033-0.017 0.283-0.05 0.75v0l-10 0.05c0-0.3 0.017-0.533 0.05-0.7v0l2.6-0.35c0.333-0.033 0.533-0.25 0.6-0.65v0-15.2h-17.05v15.9l3.7 0.2c0 0.033-0.017 0.283-0.05 0.75v0l-10.05 0.05 0.05-0.7 2.6-0.35c0.333-0.033 0.533-0.233 0.6-0.6v0-31.7c-0.067-0.4-0.267-0.617-0.6-0.65v0l-2.6-0.25-0.05-0.75 10.05-0.05c0 0.033 0.017 0.283 0.05 0.75v0l-3.7 0.35v16.05h17.05v-15.4c-0.067-0.433-0.267-0.667-0.6-0.7v0l-2.6-0.25c-0.033-0.2-0.05-0.45-0.05-0.75z" fill="#ffffff" fill-rule="nonzero" stroke="none" stroke-width="1" stroke-linecap="butt" stroke-linejoin="miter" stroke-miterlimit="10" stroke-dasharray="" stroke-dashoffset="0" font-family="none" font-weight="none" font-size="none" text-anchor="none" style="mix-blend-mode: normal" data-fill-palette-color="primary" opacity="1"></path></g></svg></g></svg></g></svg></g></svg></g><g transform="matrix(1,0,0,1,0,0.31516195244054046)"><svg viewBox="0 0 126.06478097622026 126.06478097622026" height="126.06478097622026" width="126.06478097622026"><g><svg xmlns="http://www.w3.org/2000/svg" xmlns:xlink="http://www.w3.org/1999/xlink" version="1.0" x="0" y="0" viewBox="1 1 48 48" enable-background="new 0 0 50 50" xml:space="preserve" height="126.06478097622026" width="126.06478097622026" class="icon-icon-0" data-fill-palette-color="accent" id="icon-0"><g fill="#dcdcdc" data-fill-palette-color="accent"><g fill="#dcdcdc" data-fill-palette-color="accent"><rect x="1" y="1" fill="#ffffff" width="23" height="5" data-fill-palette-color="accent"></rect><rect x="1" y="10" fill="#ffffff" width="23" height="5" data-fill-palette-color="accent"></rect><rect x="1" y="19" fill="#ffffff" width="23" height="5" data-fill-palette-color="accent"></rect></g><g fill="#dcdcdc" data-fill-palette-color="accent"><rect x="26" y="26" fill="#ffffff" width="23" height="5" data-fill-palette-color="accent"></rect><rect x="26" y="35" fill="#ffffff" width="23" height="5" data-fill-palette-color="accent"></rect><rect x="26" y="44" fill="#ffffff" width="23" height="5" data-fill-palette-color="accent"></rect></g><g fill="#dcdcdc" data-fill-palette-color="accent"><rect x="19" y="26" fill="#ffffff" width="5" height="23" data-fill-palette-color="accent"></rect><rect x="10" y="26" fill="#ffffff" width="5" height="23" data-fill-palette-color="accent"></rect><rect x="1" y="26" fill="#ffffff" width="5" height="23" data-fill-palette-color="accent"></rect></g><g fill="#dcdcdc" data-fill-palette-color="accent"><rect x="44" y="1" fill="#ffffff" width="5" height="23" data-fill-palette-color="accent"></rect><rect x="35" y="1" fill="#ffffff" width="5" height="23" data-fill-palette-color="accent"></rect><rect x="26" y="1" fill="#ffffff" width="5" height="23" data-fill-palette-color="accent"></rect></g></g></svg></g></svg></g></svg></g><defs></defs></svg><rect width="395.52" height="90.41187262671066" fill="none" stroke="none" visibility="hidden"></rect></g></svg></g></svg>